<?xml version="1.0" encoding="UTF-8" standalone="no"?>
<!-- Created with Inkscape (http://www.inkscape.org/) -->

<svg
   width="2212.4202"
   height="2500"
   id="svg2"
   version="1.1"
   inkscape:version="1.3.2 (091e20e, 2023-11-25, custom)"
   sodipodi:docname="Utbm.svg"
   viewBox="0 0 2212.42 2499.9998"
   xmlns:inkscape="http://www.inkscape.org/namespaces/inkscape"
   xmlns:sodipodi="http://sodipodi.sourceforge.net/DTD/sodipodi-0.dtd"
   xmlns="http://www.w3.org/2000/svg"
   xmlns:svg="http://www.w3.org/2000/svg"
   xmlns:rdf="http://www.w3.org/1999/02/22-rdf-syntax-ns#"
   xmlns:cc="http://creativecommons.org/ns#"
   xmlns:dc="http://purl.org/dc/elements/1.1/">
  <defs
     id="defs4">
    <inkscape:perspective
       sodipodi:type="inkscape:persp3d"
       inkscape:vp_x="0 : 465.65348 : 1"
       inkscape:vp_y="0 : 884.96799 : 0"
       inkscape:vp_z="658.4998 : 465.65348 : 1"
       inkscape:persp3d-origin="329.2499 : 310.43567 : 1"
       id="perspective10" />
    <inkscape:perspective
       sodipodi:type="inkscape:persp3d"
       inkscape:vp_x="0 : 0.44253153 : 1"
       inkscape:vp_y="0 : 884.96799 : 0"
       inkscape:vp_z="0.884968 : 0.44253153 : 1"
       inkscape:persp3d-origin="0.442484 : 0.29500736 : 1"
       id="perspective10749" />
    <inkscape:perspective
       sodipodi:type="inkscape:persp3d"
       inkscape:vp_x="0 : 465.65348 : 1"
       inkscape:vp_y="0 : 884.96799 : 0"
       inkscape:vp_z="658.4998 : 465.65348 : 1"
       inkscape:persp3d-origin="329.2499 : 310.43567 : 1"
       id="perspective10-7" />
    <inkscape:perspective
       id="perspective2824"
       inkscape:persp3d-origin="0.442484 : 0.29500736 : 1"
       inkscape:vp_z="0.884968 : 0.44253153 : 1"
       inkscape:vp_y="0 : 884.96799 : 0"
       inkscape:vp_x="0 : 0.44253153 : 1"
       sodipodi:type="inkscape:persp3d" />
    <inkscape:perspective
       id="perspective2889"
       inkscape:persp3d-origin="210.59453 : 39.081473 : 1"
       inkscape:vp_z="421.18905 : 58.622186 : 1"
       inkscape:vp_y="0 : 884.96799 : 0"
       inkscape:vp_x="0 : 58.622186 : 1"
       sodipodi:type="inkscape:persp3d" />
    <clipPath
       id="clipPath18"
       clipPathUnits="userSpaceOnUse">
      <path
         id="path20"
         d="M 0,1190.551 H 841.89 V 0 H 0 Z"
         inkscape:connector-curvature="0" />
    </clipPath>
    <inkscape:perspective
       id="perspective10-74"
       inkscape:persp3d-origin="0.442484 : 0.29500736 : 1"
       inkscape:vp_z="0.884968 : 0.44253153 : 1"
       inkscape:vp_y="0 : 884.96799 : 0"
       inkscape:vp_x="0 : 0.44253153 : 1"
       sodipodi:type="inkscape:persp3d" />
  </defs>
  <sodipodi:namedview
     id="base"
     pagecolor="#ffffff"
     bordercolor="#666666"
     borderopacity="1.0"
     inkscape:pageopacity="0.0"
     inkscape:pageshadow="2"
     inkscape:zoom="0.1767767"
     inkscape:cx="1974.2421"
     inkscape:cy="2474.8737"
     inkscape:document-units="px"
     inkscape:current-layer="layer1"
     showgrid="false"
     inkscape:window-width="2560"
     inkscape:window-height="1506"
     inkscape:window-x="-11"
     inkscape:window-y="-11"
     inkscape:window-maximized="1"
     fit-margin-top="0.1"
     fit-margin-right="0.1"
     fit-margin-bottom="0.1"
     fit-margin-left="0.1"
     inkscape:showpageshadow="0"
     inkscape:pagecheckerboard="0"
     inkscape:deskcolor="#505050">
    <inkscape:grid
       id="grid1"
       units="px"
       originx="1069.9984"
       originy="1209.0944"
       spacingx="1"
       spacingy="1"
       empcolor="#0099e5"
       empopacity="0.30196078"
       color="#0099e5"
       opacity="0.14901961"
       empspacing="5"
       dotted="false"
       gridanglex="30"
       gridanglez="30"
       visible="false" />
  </sodipodi:namedview>
  <metadata
     id="metadata7">
    <rdf:RDF>
      <cc:Work
         rdf:about="">
        <dc:format>image/svg+xml</dc:format>
        <dc:type
           rdf:resource="http://purl.org/dc/dcmitype/StillImage" />
      </cc:Work>
    </rdf:RDF>
  </metadata>
  <g
     inkscape:label="Calque 1"
     inkscape:groupmode="layer"
     id="layer1"
     transform="translate(1068.3591,223.85934)">
    <g
       id="g5293"
       transform="matrix(2.5203986,0,0,-2.5203986,-35.001121,1229.6023)">
      <g
         transform="matrix(23.27307,0,0,23.27307,66.812866,348.60338)"
         id="g910">
        <path
           id="path912"
           style="fill:#0d80c8;fill-opacity:1;fill-rule:nonzero;stroke:none"
           d="m 0,0 c -4.989,-0.601 -9.58,-0.577 -13.008,-0.058 l 1.187,-8.711 c 2.264,0.197 5.493,0.495 7.783,0.78 9.858,1.225 17.625,4.843 17.286,7.749 -0.07,0.591 -0.47,1.115 -1.139,1.569 3.024,-0.58 4.946,-1.594 5.107,-2.94 0.351,-2.905 -7.616,-6.254 -17.794,-7.478 -4.14,-0.499 -8.005,-0.568 -11.16,-0.279 l 1.179,-8.65 c 2.099,0.19 4.629,0.434 6.521,0.668 9.858,1.226 17.625,4.844 17.286,7.749 -0.07,0.59 -0.47,1.115 -1.139,1.569 3.024,-0.58 4.946,-1.593 5.107,-2.939 0.351,-2.906 -7.616,-6.255 -17.794,-7.479 -3.592,-0.433 -6.976,-0.54 -9.872,-0.373 l 1.025,-7.515 h 3.598 c 0.605,0.056 1.218,0.117 1.839,0.195 9.858,1.225 17.575,4.575 17.236,7.479 -0.07,0.591 -0.47,1.115 -1.139,1.569 3.024,-0.58 4.946,-1.594 5.107,-2.939 0.268,-2.228 -4.349,-4.712 -11.099,-6.304 H 17.23 V 5.913 C 15.257,3.458 8.381,1.009 0,0"
           inkscape:connector-curvature="0" />
      </g>
      <g
         transform="matrix(23.27307,0,0,23.27307,-338.11585,116.7788)"
         id="g914">
        <path
           id="path916"
           style="fill:#0d80c8;fill-opacity:1;fill-rule:nonzero;stroke:none"
           d="M 0,0 V -16.377 H 4.756 Z"
           inkscape:connector-curvature="0" />
      </g>
      <g
         transform="matrix(23.27307,0,0,23.27307,-50.428897,569.0141)"
         id="g918">
        <path
           id="path920"
           style="fill:#585e6a;fill-opacity:1;fill-rule:nonzero;stroke:none"
           d="m 0,0 c -9.198,-0.831 -15.506,-2.938 -15.44,-5.112 0.002,-0.07 0.011,-0.136 0.029,-0.203 L -15.45,-5.312 -4.379,-42.291 -9.316,-7.6 c 2.901,-0.303 6.612,-0.309 10.65,0.056 9.198,0.832 16.603,3.27 16.537,5.442 C 17.805,0.072 9.199,0.832 0,0"
           inkscape:connector-curvature="0" />
      </g>
    </g>
  </g>
</svg>
